<?xml version="1.0" encoding="UTF-8" standalone="no"?>
<svg width="60px" height="67px" viewBox="0 0 60 67" version="1.1" xmlns="http://www.w3.org/2000/svg" xmlns:xlink="http://www.w3.org/1999/xlink" xmlns:sketch="http://www.bohemiancoding.com/sketch/ns">
    <title>logo</title>
    <description>Created with Sketch (http://www.bohemiancoding.com/sketch)</description>
    <defs></defs>
    <g id="Page-1" stroke="none" stroke-width="1" fill="none" fill-rule="evenodd" sketch:type="MSPage">
        <g id="hexagon_smaller-copy-+-base-copy" sketch:type="MSLayerGroup" transform="translate(0.000000, -1.000000)">
            <path d="M33.6749974,1.6656597 C32.0262384,0.714723396 29.33136,0.692036559 27.6630226,1.61101863 L3.02663252,15.1816558 C1.35506954,16.1024147 0.0437896846,18.3822425 0.0982542586,20.2894557 L0.9362285,49.6332187 C0.990492829,51.5334198 2.39553487,53.8022058 4.06874285,54.697625 L27.6553951,67.3200494 C29.3311707,68.2168426 32.04457,68.2102225 33.7159805,67.3052423 L56.9736747,54.7124322 C58.645068,53.8074612 60,51.5288825 60,49.6332187 L60,20.2894557 C60,18.3892546 58.6644319,16.0785365 57.0146577,15.1270147 L33.6749974,1.6656597 Z" id="hexagon_smaller-copy" fill="#FF7373" sketch:type="MSShapeGroup"></path>
            <path d="M27.9651376,17.0100522 L34.6697248,23.7810802 L12.959633,45.5450989 L12.959633,51.1876223 L17.4293578,46.8348185 L17.4293578,50.5427624 L24.7724771,43.4493045 L30.6788991,49.2530428 L29.4018349,49.2530428 L27.9651376,51.1876223 L36.7449541,51.1876223 L35.1486239,49.2530428 L33.5522936,49.2530428 L27.3266055,42.9656596 C27.3266055,42.9656596 32.4348622,42.3207995 37.8623853,39.9025755 C43.2899083,37.4843512 45.6844037,34.0988372 45.6844037,34.0988372 C45.6844037,34.0988372 48.0788991,31.358183 47.6,26.0380895 C46.8921443,18.1745192 39.9137558,17.0711061 39.9137558,17.0711061 C39.7506069,17.0373869 39.471009,17.0100522 39.3066534,17.0100522 L27.9651376,17.0100522 Z" id="base-copy" fill="#FFFFFF" sketch:type="MSShapeGroup"></path>
        </g>
    </g>
</svg>